<svg width="40" height="40" viewBox="0 0 40 40" fill="none" xmlns="http://www.w3.org/2000/svg">
<path d="M20 3.3942C10.8333 3.3942 3.33331 10.8775 3.33331 20.0942C3.33331 28.4275 9.43331 35.3442 17.4 36.5942V24.9275H13.1666V20.0942H17.4V16.4109C17.4 12.2275 19.8833 9.92753 23.7 9.92753C25.5166 9.92753 27.4166 10.2442 27.4166 10.2442V14.3609H25.3166C23.25 14.3609 22.6 15.6442 22.6 16.9609V20.0942H27.2333L26.4833 24.9275H22.6V36.5942C26.5274 35.9739 30.1037 33.9701 32.6832 30.9443C35.2627 27.9185 36.6756 24.0703 36.6666 20.0942C36.6666 10.8775 29.1666 3.3942 20 3.3942Z" fill="#333333"/>
</svg>
