<svg width="40" height="40" viewBox="0 0 40 40" fill="none" xmlns="http://www.w3.org/2000/svg">
<path d="M13 3.32755H27C32.3333 3.32755 36.6667 7.66088 36.6667 12.9942V26.9942C36.6667 29.558 35.6482 32.0167 33.8354 33.8296C32.0225 35.6424 29.5638 36.6609 27 36.6609H13C7.66668 36.6609 3.33334 32.3275 3.33334 26.9942V12.9942C3.33334 10.4305 4.35179 7.9717 6.16464 6.15885C7.9775 4.34599 10.4363 3.32755 13 3.32755ZM12.6667 6.66088C11.0754 6.66088 9.54925 7.29302 8.42404 8.41824C7.29882 9.54346 6.66668 11.0696 6.66668 12.6609V27.3275C6.66668 30.6442 9.35001 33.3275 12.6667 33.3275H27.3333C28.9246 33.3275 30.4508 32.6954 31.576 31.5702C32.7012 30.445 33.3333 28.9188 33.3333 27.3275V12.6609C33.3333 9.34421 30.65 6.66088 27.3333 6.66088H12.6667ZM28.75 9.16088C29.3025 9.16088 29.8324 9.38037 30.2232 9.77107C30.6139 10.1618 30.8333 10.6917 30.8333 11.2442C30.8333 11.7967 30.6139 12.3266 30.2232 12.7174C29.8324 13.1081 29.3025 13.3275 28.75 13.3275C28.1975 13.3275 27.6676 13.1081 27.2769 12.7174C26.8862 12.3266 26.6667 11.7967 26.6667 11.2442C26.6667 10.6917 26.8862 10.1618 27.2769 9.77107C27.6676 9.38037 28.1975 9.16088 28.75 9.16088ZM20 11.6609C22.2101 11.6609 24.3298 12.5389 25.8926 14.1017C27.4554 15.6645 28.3333 17.7841 28.3333 19.9942C28.3333 22.2043 27.4554 24.324 25.8926 25.8868C24.3298 27.4496 22.2101 28.3275 20 28.3275C17.7899 28.3275 15.6703 27.4496 14.1075 25.8868C12.5447 24.324 11.6667 22.2043 11.6667 19.9942C11.6667 17.7841 12.5447 15.6645 14.1075 14.1017C15.6703 12.5389 17.7899 11.6609 20 11.6609ZM20 14.9942C18.6739 14.9942 17.4022 15.521 16.4645 16.4587C15.5268 17.3964 15 18.6681 15 19.9942C15 21.3203 15.5268 22.5921 16.4645 23.5297C17.4022 24.4674 18.6739 24.9942 20 24.9942C21.3261 24.9942 22.5979 24.4674 23.5355 23.5297C24.4732 22.5921 25 21.3203 25 19.9942C25 18.6681 24.4732 17.3964 23.5355 16.4587C22.5979 15.521 21.3261 14.9942 20 14.9942Z" fill="#333333"/>
</svg>
