<svg width="41" height="40" viewBox="0 0 41 40" fill="none" xmlns="http://www.w3.org/2000/svg">
<path d="M32 4.9942C32.8841 4.9942 33.7319 5.34539 34.357 5.97051C34.9822 6.59563 35.3333 7.44348 35.3333 8.32753V31.6609C35.3333 32.5449 34.9822 33.3928 34.357 34.0179C33.7319 34.643 32.8841 34.9942 32 34.9942H8.66668C7.78262 34.9942 6.93478 34.643 6.30965 34.0179C5.68453 33.3928 5.33334 32.5449 5.33334 31.6609V8.32753C5.33334 7.44348 5.68453 6.59563 6.30965 5.97051C6.93478 5.34539 7.78262 4.9942 8.66668 4.9942H32ZM31.1667 30.8275V21.9942C31.1667 20.5532 30.5942 19.1712 29.5753 18.1523C28.5563 17.1333 27.1744 16.5609 25.7333 16.5609C24.3167 16.5609 22.6667 17.4275 21.8667 18.7275V16.8775H17.2167V30.8275H21.8667V22.6109C21.8667 21.3275 22.9 20.2775 24.1833 20.2775C24.8022 20.2775 25.3957 20.5234 25.8333 20.961C26.2708 21.3985 26.5167 21.992 26.5167 22.6109V30.8275H31.1667ZM11.8 14.2609C12.5426 14.2609 13.2548 13.9659 13.7799 13.4408C14.305 12.9157 14.6 12.2035 14.6 11.4609C14.6 9.91087 13.35 8.6442 11.8 8.6442C11.053 8.6442 10.3366 8.94096 9.80833 9.46918C9.2801 9.99741 8.98334 10.7138 8.98334 11.4609C8.98334 13.0109 10.25 14.2609 11.8 14.2609ZM14.1167 30.8275V16.8775H9.50001V30.8275H14.1167Z" fill="#333333"/>
</svg>
