<svg width="41" height="40" viewBox="0 0 41 40" fill="none" xmlns="http://www.w3.org/2000/svg">
<path d="M17.3334 24.9942L25.9834 19.9942L17.3334 14.9942V24.9942ZM36.6 11.9442C36.8167 12.7275 36.9667 13.7775 37.0667 15.1109C37.1834 16.4442 37.2334 17.5942 37.2334 18.5942L37.3334 19.9942C37.3334 23.6442 37.0667 26.3275 36.6 28.0442C36.1834 29.5442 35.2167 30.5109 33.7167 30.9275C32.9334 31.1442 31.5 31.2942 29.3 31.3942C27.1334 31.5109 25.15 31.5609 23.3167 31.5609L20.6667 31.6609C13.6834 31.6609 9.33336 31.3942 7.6167 30.9275C6.1167 30.5109 5.15003 29.5442 4.73336 28.0442C4.5167 27.2609 4.3667 26.2109 4.2667 24.8775C4.15003 23.5442 4.10003 22.3942 4.10003 21.3942L4.00003 19.9942C4.00003 16.3442 4.2667 13.6609 4.73336 11.9442C5.15003 10.4442 6.1167 9.47755 7.6167 9.06088C8.40003 8.84421 9.83336 8.69421 12.0334 8.59421C14.2 8.47754 16.1834 8.42755 18.0167 8.42755L20.6667 8.32755C27.65 8.32755 32 8.59421 33.7167 9.06088C35.2167 9.47755 36.1834 10.4442 36.6 11.9442Z" fill="#333333"/>
</svg>
